# xmcd CD database file
#
# Track frame offsets:
#	150
#	50476
#	94314
#	153087
#
# Disc length: 2587 seconds
#
# Revision: 0
# Processed by: cddbd v1.5.2PL0 Copyright (c) Steve Scherf et al.
# Submitted via: CDex 1.70beta2
#
DISCID=280a1904
DTITLE=The astronomical unit - Relativity
DYEAR=2010
DGENRE=Jazz
TTITLE0=Parallel firsts
TTITLE1=See the sun
TTITLE2=Degrees of three
TTITLE3=Shooting satellites
EXTD=YEAR: 2010
EXTT0=
EXTT1=
EXTT2=
EXTT3=
PLAYORDER=
